# xmcd CD database file
#
# Track frame offsets:
#	150
#	14950
#	26685
#	42329
#
# Disc length: 844 seconds
#
# Revision: 1
# Processed by: cddbd v1.5.1PL2 Copyright (c) Steve Scherf et al.
# Submitted via: CDex 1.51
#
DISCID=31034a04
DTITLE=Dusty 45's - Devil takes his turn
DYEAR=2004
DGENRE=Jazz
TTITLE0=Devil takes his turn
TTITLE1=New Romance
TTITLE2=Blistering Sky
TTITLE3=St. James Infimary
EXTD=YEAR: 2004
EXTT0=
EXTT1=
EXTT2=
EXTT3=
PLAYORDER=
